<svg xmlns="http://www.w3.org/2000/svg" viewBox="0 0 328.38 74.31" role="img" aria-label="Athinorama" fill="currentColor">
<path d="M34.74,59.66v-44H23.67v3.81a14.45,14.45,0,0,0,.17,2.18,13.09,13.09,0,0,0-4-5.54,10.62,10.62,0,0,0-6.21-1.6q-7.11,0-10.37,5.54C1.08,23.74,0,29.77,0,37.8S1,51.67,3.17,55.31s5.6,5.46,10.32,5.46a11.07,11.07,0,0,0,6.32-1.61A13.3,13.3,0,0,0,24,53.72c-.07.67-.13,1.21-.13,1.67v4.3ZM23.26,44.44a18.94,18.94,0,0,1-1,4.64,4.86,4.86,0,0,1-1.9,2.49,5.47,5.47,0,0,1-2.93.74,5.48,5.48,0,0,1-2.94-.71,4.53,4.53,0,0,1-1.81-2.36,17.13,17.13,0,0,1-1-4.4c-.18-1.8-.27-4-.28-6.8s.08-5.22.25-7.14a16,16,0,0,1,1-4.59,5,5,0,0,1,1.85-2.46,5.45,5.45,0,0,1,3-.74,5.37,5.37,0,0,1,2.8.7,5.11,5.11,0,0,1,1.9,2.38,16.21,16.21,0,0,1,1.07,4.39,58.22,58.22,0,0,1,.33,6.73A67.93,67.93,0,0,1,23.26,44.44Z"/><path d="M72.59,16.7A27.43,27.43,0,0,0,70,7.31,12.25,12.25,0,0,0,64.7,2,19.3,19.3,0,0,0,56,.25a21.2,21.2,0,0,0-9,1.68,11.86,11.86,0,0,0-5.5,5.36,27,27,0,0,0-2.65,9.38,116.93,116.93,0,0,0-.7,13.87c0,5.36.18,9.94.54,13.77A28.08,28.08,0,0,0,41,53.72a11.25,11.25,0,0,0,5.15,5.4,20.3,20.3,0,0,0,9.19,1.73A22.84,22.84,0,0,0,65,59.16a11.39,11.39,0,0,0,5.43-5.36,25.93,25.93,0,0,0,2.35-9.44q.5-5.74.5-13.85A113.85,113.85,0,0,0,72.59,16.7ZM49.59,26c0-3.09.07-5.76.22-8a22.82,22.82,0,0,1,.9-5.57,7.26,7.26,0,0,1,1.94-3.33A4.8,4.8,0,0,1,55.94,8C58.37,8,60,9.5,60.7,12.51a60.94,60.94,0,0,1,1.1,13.41Zm12.3,7.76c0,3,0,5.71-.15,8.11a33.2,33.2,0,0,1-.8,6.12,8.81,8.81,0,0,1-1.85,3.9,4.41,4.41,0,0,1-3.39,1.36,4.62,4.62,0,0,1-3.55-1.36A8.49,8.49,0,0,1,50.34,48a31.57,31.57,0,0,1-.67-6.21q-.08-3.57-.08-8Z"/><path d="M109.61,59.69V27.39a15.47,15.47,0,0,0-2.6-9.31q-2.6-3.57-8.7-3.57a13.26,13.26,0,0,0-6.77,1.73,12.29,12.29,0,0,0-4.71,4.83A11.23,11.23,0,0,0,87,19.15V15.66H76.17v44H87.38v-29q0-7.29,6-7.29a6.72,6.72,0,0,1,2.35.37,3,3,0,0,1,1.48,1.31A7.86,7.86,0,0,1,98,27.64a29.17,29.17,0,0,1,.29,4.18V59.69Z"/><path d="M146.49,15.69H134.85L130,42.18a28.06,28.06,0,0,0-.66,4.07,34.76,34.76,0,0,0-.33,3.81h-.32a38.54,38.54,0,0,0-.4-3.86c-.22-1.47-.47-3.06-.75-4.75l-5-25.76h-12l11.47,44h13.34Z"/><path d="M180.13,27a18.12,18.12,0,0,0-3-7.14,11.92,11.92,0,0,0-5.32-4,21.79,21.79,0,0,0-8-1.28,23.53,23.53,0,0,0-6.73.83A13.61,13.61,0,0,0,152.16,18a14.53,14.53,0,0,0-4.83,7.31,45.37,45.37,0,0,0-1.4,12.55,50,50,0,0,0,1,10.5,18.06,18.06,0,0,0,3,7.09,12,12,0,0,0,5.32,4,21.85,21.85,0,0,0,7.89,1.28,22.67,22.67,0,0,0,8.16-1.31,13,13,0,0,0,5.58-4.11,18.2,18.2,0,0,0,3.17-7.13,49.14,49.14,0,0,0,1-10.62A50.2,50.2,0,0,0,180.13,27ZM169.26,44.78a19.9,19.9,0,0,1-1.07,4.88,5.86,5.86,0,0,1-1.9,2.7,4.69,4.69,0,0,1-2.81.83,5,5,0,0,1-2.89-.79,5.29,5.29,0,0,1-1.86-2.58,18.53,18.53,0,0,1-1-4.76c-.18-2-.29-4.27-.29-7.22s.11-5.42.29-7.42a17.18,17.18,0,0,1,1.05-4.8,4.78,4.78,0,0,1,4.94-3.36,5.05,5.05,0,0,1,2.73.74,4.84,4.84,0,0,1,1.8,2.51,21.72,21.72,0,0,1,1,4.71,66.06,66.06,0,0,1,.34,7.17A70.15,70.15,0,0,1,169.26,44.78ZM176.1,0H164.71l-4.54,11.89h7.52Z"/><path d="M216.79,26.88a17.82,17.82,0,0,0-3.06-7.14,12,12,0,0,0-5.41-4,22,22,0,0,0-7.91-1.28,19,19,0,0,0-9,1.85,13,13,0,0,0-5.25,5,19.88,19.88,0,0,0-2.39,7.34,66.32,66.32,0,0,0-.57,8.91V74.31h11.3V60.79c0-.93,0-1.7-.08-2.29a22,22,0,0,1-.09-2.3,8.57,8.57,0,0,0,3.6,3.65,8.81,8.81,0,0,0,3.76,1c3.73,0,6.59-.76,8.73-2.26a14.08,14.08,0,0,0,4.84-5.7,23.94,23.94,0,0,0,2.06-7.55,74.85,74.85,0,0,0,.47-7.78A51.74,51.74,0,0,0,216.79,26.88ZM206.33,37.64a49.51,49.51,0,0,1-.33,6.67,16.85,16.85,0,0,1-1.14,4.41,5.27,5.27,0,0,1-1.9,2.42,4.85,4.85,0,0,1-2.72.76,5.26,5.26,0,0,1-2.85-.71,4.39,4.39,0,0,1-1.73-2.41,18,18,0,0,1-.86-4.55q-.26-2.83-.26-7.1c0-2.52.09-4.74.26-6.52a15.11,15.11,0,0,1,.94-4.35,4.52,4.52,0,0,1,4.66-3.16,5.22,5.22,0,0,1,2.73.7A4.82,4.82,0,0,1,205,26.18a17.15,17.15,0,0,1,1,4.46,58.38,58.38,0,0,1,.33,7Z"/><path d="M254.74,59.66v-44H243.68v3.81a17.63,17.63,0,0,0,.17,2.18,13.09,13.09,0,0,0-4-5.54,10.65,10.65,0,0,0-6.22-1.6q-7.11,0-10.37,5.54C221.09,23.74,220,29.77,220,37.8s1.14,13.87,3.27,17.51,5.58,5.46,10.3,5.46a11.07,11.07,0,0,0,6.32-1.61,13.19,13.19,0,0,0,4.16-5.44c0,.67-.12,1.21-.12,1.67v4.3Zm-11.4-15.19a18.94,18.94,0,0,1-1,4.64,4.71,4.71,0,0,1-1.9,2.49,6.18,6.18,0,0,1-5.82,0,4.51,4.51,0,0,1-1.8-2.36,17.13,17.13,0,0,1-1-4.4,67.11,67.11,0,0,1-.28-6.8c0-2.84.08-5.22.25-7.14a15.63,15.63,0,0,1,.94-4.59,5.08,5.08,0,0,1,1.85-2.46,5.53,5.53,0,0,1,3-.74,5.37,5.37,0,0,1,2.8.7,5,5,0,0,1,1.9,2.38,16.24,16.24,0,0,1,1.09,4.39,63,63,0,0,1,.3,6.73A71.34,71.34,0,0,1,243.34,44.47Z"/><path d="M291,59.66v-44H279.58V45.05a11,11,0,0,1-1.36,5.7A4.47,4.47,0,0,1,274.14,53,4.86,4.86,0,0,1,270,51.23c-.89-1.14-1.34-3.23-1.34-6.23V15.66H257.39V74.31h11.25V60.85c0-.39,0-.84,0-1.39s-.1-1.3-.21-2.22a13.07,13.07,0,0,0,2.25,2.33,4.68,4.68,0,0,0,3.13,1.28,5.56,5.56,0,0,0,3.79-1.24,12.58,12.58,0,0,0,2.63-3.35,9.39,9.39,0,0,0-.08,1.19v2.24Z"/><path d="M328.38,59.66v-44H317.33v3.81a17.63,17.63,0,0,0,.17,2.18,13.09,13.09,0,0,0-4-5.54,10.72,10.72,0,0,0-6.22-1.6c-4.73,0-8.21,1.85-10.37,5.54s-3.27,9.72-3.27,17.75,1.1,13.87,3.23,17.51,5.6,5.46,10.31,5.46a11.07,11.07,0,0,0,6.32-1.61,13.3,13.3,0,0,0,4.17-5.44c-.06.67-.13,1.21-.13,1.67v4.3ZM317,44.45a18.9,18.9,0,0,1-1.08,4.63,4.86,4.86,0,0,1-1.9,2.49,5.35,5.35,0,0,1-2.92.74,5.55,5.55,0,0,1-2.9-.71,4.62,4.62,0,0,1-1.79-2.36,16.23,16.23,0,0,1-.94-4.4,55.17,55.17,0,0,1-.3-6.8c0-2.84.07-5.22.25-7.14a16.38,16.38,0,0,1,.94-4.59,5.1,5.1,0,0,1,1.84-2.45,5.53,5.53,0,0,1,3-.74,5.28,5.28,0,0,1,2.8.7,5,5,0,0,1,1.88,2.37,16.17,16.17,0,0,1,1.1,4.39,63,63,0,0,1,.3,6.73A68.07,68.07,0,0,1,317,44.45Z"/>
</svg>
